<svg width="638" height="373" viewBox="0 0 638 373" fill="none" xmlns="http://www.w3.org/2000/svg">
<g filter="url(#filter0_d_1_14)">
<path d="M291.171 355.587V356.587H292.171V355.587H291.171ZM291.171 22.0898V21.0898H290.171V22.0898H291.171ZM611.299 22.0898C611.299 25.0354 613.687 27.4232 616.632 27.4232C619.578 27.4232 621.966 25.0354 621.966 22.0898C621.966 19.1443 619.578 16.7565 616.632 16.7565C613.687 16.7565 611.299 19.1443 611.299 22.0898ZM16.6055 355.587V356.587H291.171V355.587V354.587H16.6055V355.587ZM291.171 355.587H292.171V22.0898H291.171H290.171V355.587H291.171ZM291.171 22.0898V23.0898H616.632V22.0898V21.0898H291.171V22.0898Z" fill="#40DDE3"/>
</g>
<defs>
<filter id="filter0_d_1_14" x="0.605469" y="0.7565" width="637.36" height="371.83" filterUnits="userSpaceOnUse" color-interpolation-filters="sRGB">
<feFlood flood-opacity="0" result="BackgroundImageFix"/>
<feColorMatrix in="SourceAlpha" type="matrix" values="0 0 0 0 0 0 0 0 0 0 0 0 0 0 0 0 0 0 127 0" result="hardAlpha"/>
<feOffset/>
<feGaussianBlur stdDeviation="8"/>
<feComposite in2="hardAlpha" operator="out"/>
<feColorMatrix type="matrix" values="0 0 0 0 0.270588 0 0 0 0 0.968627 0 0 0 0 0.980392 0 0 0 1 0"/>
<feBlend mode="normal" in2="BackgroundImageFix" result="effect1_dropShadow_1_14"/>
<feBlend mode="normal" in="SourceGraphic" in2="effect1_dropShadow_1_14" result="shape"/>
</filter>
</defs>
</svg>
